<svg width="557" height="748" xmlns="http://www.w3.org/2000/svg" xml:space="preserve">
 <g>
  <title>Layer 1</title>
  <path opacity="0.25" d="m512.74867,395.2034l0.00933,-0.24399c0.20533,-1.60929 -0.54132,-3.15725 -1.43196,-4.23989c-2.00262,-2.29194 -4.53322,-3.53458 -7.21182,-4.41322c0.84398,1.17064 1.86929,2.11728 2.83326,3.04392c0.95731,0.93598 1.92795,1.80795 2.68793,2.75993c0.14666,0.172 0.27333,0.34799 0.39999,0.52132c0.56532,0.77465 0.94264,1.58129 1.01064,2.44261c0.06667,0.81998 -0.20533,1.71596 -0.61998,2.66793c-0.132,0.30133 -0.27333,0.60665 -0.42799,0.91731a5.87719,-5.87719 0 0 1 0.88931,-0.55732c0.88931,-0.66798 1.63196,-1.62796 1.86129,-2.89859m-11.22905,-12.53569c-0.18666,-0.36266 -0.39599,-0.70532 -0.63465,-1.01864c-0.85731,-1.1533 -1.92529,-2.04662 -3.02126,-2.85726c-2.24394,-1.54129 -4.69322,-2.72793 -7.44781,-3.16392c1.95728,1.96928 4.10123,3.43325 6.18118,4.94654c0.98264,0.68532 1.93595,1.3893 2.85193,2.10395l0.18933,0.14c0.89064,0.82131 1.97995,1.5173 1.87862,2.92126c0.54532,-0.48532 0.60932,-1.4253 0.39199,-2.14128c-0.1,-0.32933 -0.23733,-0.63598 -0.38932,-0.93064m16.99424,21.04347c0.95731,0.73332 1.98528,1.28397 2.84526,1.88262c0.91198,0.58265 1.53063,1.13064 1.68529,1.84529c0.19333,0.78798 -0.18933,1.91062 -0.52932,3.10392c1.01731,-0.65065 2.06128,-1.56929 2.23594,-3.15459c0.13866,-0.80131 -0.26266,-1.59463 -0.65598,-2.22928c-0.46399,-0.57199 -0.99464,-1.01597 -1.51996,-1.38263c-1.07997,-0.68932 -2.15861,-1.15064 -3.23325,-1.55063c-1.07064,-0.42799 -2.10128,-0.75465 -3.19059,-1.34663c0.40932,1.2093 1.4133,2.11995 2.36261,2.83193m-31.86187,-31.42988c0.00667,-0.15866 0.01067,-0.31866 0.02133,-0.48132c-0.03067,-0.44132 -0.16533,-0.85331 -0.25466,-1.29063c-0.51865,-1.66796 -1.55196,-3.01192 -2.6386,-4.20389c-1.13331,-1.16397 -2.38794,-2.14928 -3.73857,-2.98259c-1.34397,-0.83331 -2.77326,-1.53196 -4.32923,-1.94928c1.07864,1.1893 2.19328,2.24661 3.29325,3.29725c1.07997,1.06797 2.19995,2.06395 3.19192,3.14525c1.01331,1.05331 1.94662,2.15195 2.6386,3.33458l0.164,0.35199c0.54265,1.09731 0.74531,2.31461 0.2,3.71191c0.28266,-0.26399 0.57465,-0.56132 0.85465,-0.89198c0.22799,-0.35066 0.34532,-0.77465 0.51865,-1.19464c0.056,-0.27466 0.06933,-0.55865 0.07866,-0.84665m-21.15147,-20.27416c-2.64527,0.29199 -5.29987,0.136 -7.9518,0.01333c-2.6506,-0.08 -5.3012,-0.21866 -7.95047,-0.39066c-5.2972,-0.33199 -10.5904,-0.65198 -15.8756,-1.07064c-5.29053,-0.36266 -10.5664,-0.85065 -15.83027,-1.4053c-2.63593,-0.25599 -5.26254,-0.60932 -7.8598,-1.07597c-2.62793,-0.37066 -5.1852,-0.96931 -7.68114,-1.93329c4.66388,2.70927 10.08775,3.66658 15.30228,4.66788c5.26654,0.95731 10.5864,1.5093 15.90494,1.92795c5.32387,0.37199 10.6544,0.63732 15.99427,0.57332c5.3172,-0.13466 10.7264,0.00267 15.9476,-1.30663m-73.5075,-4.1319c-2.21861,-0.31999 -4.46522,-0.20533 -6.66517,0.06667c-2.20661,0.27199 -4.37722,0.76265 -6.51317,1.37863c-2.12261,0.65198 -4.21856,1.42796 -6.20518,2.48394c-0.99464,0.51999 -1.95862,1.12131 -2.85726,1.82929c-0.43599,0.37599 -0.87331,0.75065 -1.23064,1.22264c-0.35066,0.44932 -0.67598,1.03331 -0.58799,1.60663c0.40266,-1.03597 1.46796,-1.4533 2.39327,-1.91862c0.95864,-0.45066 1.96662,-0.81331 2.96926,-1.1773c2.02795,-0.69332 4.07456,-1.3533 6.14518,-1.95062c4.13723,-1.2453 8.26646,-2.38127 12.55169,-3.54124m46.60684,127.84347c2.40527,-1.65063 5.09321,-2.50794 7.8078,-3.03192c2.72793,-0.47999 5.52253,-0.62798 8.31446,-0.49199c2.7946,0.09866 5.58786,0.45332 8.36779,0.93464c2.7746,0.52399 5.54786,1.13464 8.30379,2.05195c-2.37861,-1.67596 -5.10121,-2.88259 -7.9078,-3.70524c-2.80926,-0.84931 -5.72919,-1.3213 -8.67845,-1.4653c-2.94526,-0.108 -5.94652,0.144 -8.80511,1.01597c-2.84793,0.83465 -5.58253,2.39727 -7.40248,4.69188m80.30466,90.77907c0.84931,1.63996 1.86795,2.80793 2.8106,3.99057c0.48665,0.56932 0.91731,1.14264 1.3133,1.70796l0.148,0.24266c0.30799,0.50665 0.58265,1.03731 0.61598,1.86129c0.72932,-0.46399 0.97198,-1.4613 0.87598,-2.33861l-0.036,-0.35199c-0.17733,-0.97998 -0.67332,-1.79729 -1.22264,-2.50394c-1.1693,-1.34797 -2.6506,-2.37194 -4.50522,-2.60793m11.62238,12.89301c1.1893,1.98528 2.49327,3.61591 3.8159,5.2492c0.48265,0.57465 0.94131,1.15064 1.4013,1.72396c0.17733,0.22399 0.36799,0.44666 0.54665,0.67065c0.57465,0.83731 1.24664,1.53463 1.27197,2.70127c0.44666,-0.38932 0.63998,-1.10531 0.61065,-1.71996c-0.02,-0.63065 -0.16666,-1.2293 -0.37866,-1.78529c-0.09333,-0.25599 -0.23599,-0.47999 -0.35199,-0.71865a12.52182,-12.52182 0 0 1 -1.40796,-2.25728c-0.73332,-0.86665 -1.53863,-1.65729 -2.45327,-2.32128c-0.90398,-0.66398 -1.90129,-1.2613 -3.05459,-1.54263m22.20478,32.66718c-0.56665,-1.00797 -1.27063,-1.95862 -2.21728,-2.69727c0.33066,2.33994 0.90531,4.36789 1.3213,6.41717c0.23066,1.01064 0.40132,2.01195 0.48665,2.99459c0.02533,0.48399 0.036,0.95864 -0.02667,1.44396c-0.06267,0.50532 -0.20399,1.01864 -0.49732,1.56263c0.33333,-0.092 0.62665,-0.27199 0.89331,-0.49199c0.69332,-0.57465 1.15997,-1.49063 1.33063,-2.35594c0.28399,-1.2293 0.17466,-2.45594 -0.048,-3.61191c-0.27066,-1.1493 -0.66132,-2.25328 -1.24264,-3.26125m-6.80383,-13.90099c-0.42266,-1.02397 -0.91331,-2.02262 -1.56396,-2.93726c-0.63998,-0.89864 -1.39463,-1.83729 -2.4746,-2.34661c0.37466,1.08397 0.60932,2.09595 0.95464,3.10659c0.30666,1.01331 0.68532,1.98795 1.04664,2.97193c0.39199,0.96664 0.77465,1.93595 1.20264,2.88659c0.16666,0.41866 0.35466,0.81998 0.53199,1.22797c0.23333,0.54265 0.44666,1.09997 0.54799,1.73729c0.59865,-0.79065 0.66932,-1.80129 0.61998,-2.7346c-0.00933,-0.22533 -0.02533,-0.45066 -0.04667,-0.66132c-0.11733,-1.13331 -0.43866,-2.20794 -0.81865,-3.25059m-125.91552,-141.75779c-9.34777,-18.03822 -19.70484,-35.57378 -31.80187,-51.96537c-6.06118,-8.17713 -12.58902,-16.0596 -19.97817,-23.15675c-3.73324,-3.49591 -7.69181,-6.81183 -12.09303,-9.49443c-4.32656,-2.68127 -9.45043,-4.69455 -14.54364,-4.19056c5.10121,0.21199 9.61576,2.70527 13.53033,5.69052c3.9359,3.02126 7.50648,6.50384 10.80906,10.23574c6.65583,7.42115 12.49835,15.56761 18.10088,23.85407c5.49053,8.37312 10.8344,16.85291 15.77561,25.58336c5.01987,8.67712 9.83575,17.48356 14.35564,26.43134c4.54389,8.90244 9.05044,17.95822 12.67968,27.11666c3.69724,9.07977 5.99452,18.70487 6.92916,28.46062c0.91331,9.76109 0.052,19.71017 -2.86126,29.09527c-1.57863,4.62255 -3.50258,9.23177 -6.41051,13.23967c-2.85726,4.01857 -6.38651,7.63048 -10.65707,10.37574c4.60122,-2.13061 8.69978,-5.37187 12.09703,-9.2571l2.42527,-3.02792l2.07195,-3.27725c0.73731,-1.07864 1.2813,-2.25194 1.85329,-3.41325c0.53999,-1.17464 1.2173,-2.30528 1.64663,-3.52658c3.81857,-9.64509 5.46253,-20.15416 4.95054,-30.51924c-0.36266,-10.39174 -2.68127,-20.64748 -6.24384,-30.38724c-3.63591,-9.67976 -8.10913,-18.74886 -12.63568,-27.8673m132.17136,176.41159c-0.91864,5.2172 -1.22264,10.40774 -2.09195,15.44761c-0.49332,2.93993 -1.1653,5.81985 -2.25194,8.56379c-0.77865,1.95995 -1.76262,3.85057 -3.07326,5.63319c1.03464,-0.69732 1.94795,-1.56929 2.75993,-2.53594c0.92264,-1.09731 1.71062,-2.32128 2.34261,-3.60791c1.21197,-2.42927 1.91729,-5.06121 2.37727,-7.68914c0.83465,-5.28253 0.74131,-10.58774 -0.06267,-15.8116m-183.67274,-122.87293l-11.93837,-23.29942l-12.33703,-23.09009c-4.22923,-7.63448 -8.38112,-15.30895 -12.75701,-22.8661c-4.30123,-7.59581 -8.74511,-15.11696 -13.25167,-22.60344c-4.61855,-7.41315 -9.05711,-14.96896 -14.35831,-21.96212c4.05723,7.73314 7.71181,15.65828 11.54105,23.49808l11.56638,23.47008c3.8359,7.8358 7.86514,15.56494 11.77571,23.35942l12.00503,23.23809l12.23303,23.11409c4.17723,7.65714 8.22113,15.37962 12.46636,22.99676l12.67302,22.89143l6.41584,11.40638l3.18259,5.71719c1.02797,1.91995 2.20128,3.78257 2.92259,5.83585c-1.01864,-4.27723 -2.8626,-8.28513 -4.46656,-12.34769c-1.66263,-4.04657 -3.43058,-8.0438 -5.17054,-12.0557c-3.56791,-7.9758 -7.21315,-15.91294 -10.99439,-23.78207c-3.70791,-7.90647 -7.65314,-15.69161 -11.50771,-23.52075m22.84076,72.69685c-0.85065,2.73726 -2.81993,4.94254 -5.09454,6.49317c-2.27461,1.61063 -4.94788,2.4986 -7.60114,3.21059c-5.4212,1.1533 -11.05306,1.23464 -16.60625,0.53865c-2.77726,-0.25333 -5.54653,-0.76931 -8.30246,-1.21597l-4.1159,-0.90131c-1.36663,-0.30133 -2.77593,-0.55865 -3.98657,-1.02931c-5.02654,-1.61996 -9.83309,-4.40922 -14.25831,-7.71447c-8.83845,-6.66917 -16.79425,-14.68363 -24.11406,-23.19142c-7.34382,-8.50912 -14.12631,-17.53823 -20.37816,-26.91533c-6.33851,-9.31977 -12.11436,-19.02486 -17.36623,-28.99528c-5.30653,-9.94508 -9.91442,-20.24616 -13.80766,-30.79256l-1.43196,-3.9679l-1.25864,-4.01857c-0.89464,-2.66793 -1.55196,-5.39187 -2.28794,-8.09846c-0.79465,-2.7026 -1.20397,-5.47053 -1.82662,-8.21179c-0.43332,-2.7586 -0.88531,-5.5332 -1.14397,-8.31713c-0.57465,-5.57453 -0.50399,-11.18639 0.22799,-16.75291c0.93331,-5.51453 2.63727,-10.94506 5.54653,-15.89027c-3.47858,4.54922 -5.85719,9.91575 -7.32248,15.53828c-0.55999,2.83593 -1.20797,5.69319 -1.34663,8.59312c-0.35866,2.89726 -0.29866,5.79452 -0.30533,8.70512c0.31199,11.63038 2.87326,23.04209 6.31318,34.05515c6.99983,22.05545 17.83022,42.64293 30.5659,61.81712c13.01301,18.93686 27.73264,37.1644 46.99483,50.6414c4.86121,3.25592 10.13975,6.16385 16.07826,7.67048c1.49596,0.45199 2.91193,0.61598 4.34389,0.83998l4.28923,0.65998c1.43463,0.19866 2.89193,0.28266 4.33323,0.42666c1.44663,0.116 2.87859,0.31199 4.34389,0.28266l4.36256,0.044l4.36922,-0.30533c2.90259,-0.31199 5.79452,-0.84931 8.59179,-1.74396c2.74926,-1.02664 5.4732,-2.23461 7.70914,-4.17856c2.20794,-1.90795 3.96123,-4.45322 4.48522,-7.27582m-107.89864,-36.0591c-2.92526,0.08933 -5.81319,1.34663 -8.18246,3.13059c-2.41061,1.77196 -4.40656,4.0279 -6.08118,6.45317c-1.64396,2.45061 -3.00926,5.07587 -4.01057,7.83314c-1.01731,2.74393 -1.67729,5.64519 -1.75462,8.55445c0.91331,-2.75593 2.07995,-5.3452 3.31992,-7.88247c1.27463,-2.51594 2.6586,-4.97054 4.24923,-7.26782c1.55863,-2.32128 3.34658,-4.47322 5.36387,-6.37451c2.04262,-1.86129 4.33456,-3.50525 7.09582,-4.44656m28.12863,127.21816c-0.63998,-0.51732 -0.90264,-1.05464 -1.12397,-1.60529l-0.10666,-0.26133c-0.21733,-0.65598 -0.41999,-1.34263 -0.58399,-2.07461c-0.38532,-1.46263 -0.71198,-2.97859 -1.5213,-4.63988c-0.91731,1.63063 -0.98264,3.42791 -0.59999,5.17187c0.23733,0.86265 0.59732,1.74929 1.2773,2.4786l0.26133,0.23733c0.64398,0.59865 1.58929,1.00131 2.39727,0.69332m21.33013,50.8306c-0.61198,-0.088 -1.10931,-0.28226 -1.54929,-0.53439c-0.42666,-0.24173 -0.80131,-0.53225 -1.17597,-0.84171c-0.73465,-0.65718 -1.4373,-1.3905 -2.10928,-2.18221c-1.3933,-1.55623 -2.67593,-3.22805 -4.35322,-4.89201c0.024,1.20104 0.36666,2.33328 0.83731,3.38898c0.45999,1.06824 1.11197,2.04155 1.87195,2.94579c0.79331,0.86918 1.71062,1.69049 2.86526,2.19835c0.79598,0.37866 1.81062,0.55305 2.68393,0.33852c0.33732,-0.08226 0.65465,-0.20933 0.92931,-0.42132m-11.31305,-16.1328c-0.21999,-0.38399 -0.43066,-0.77598 -0.67065,-1.15997c-0.50399,-0.91331 -1.04931,-1.79729 -1.59329,-2.68927c-0.57065,-0.87598 -1.12797,-1.76262 -1.75596,-2.61727c-0.60532,-0.87864 -1.27597,-1.67062 -1.91995,-2.6226c-0.23866,1.1733 0.064,2.33994 0.39999,3.38658c0.34666,1.06931 0.85198,2.05995 1.4213,3.01192c0.60932,0.92931 1.27863,1.82529 2.11728,2.5986c0.15733,0.144 0.32933,0.28799 0.50265,0.43466c0.71998,0.59465 1.57063,1.1413 2.56394,1.13597c-0.45199,-0.46399 -0.76931,-0.96664 -1.06531,-1.47863m-9.18644,-17.05024c0.12266,0.23599 0.21599,0.48399 0.36532,0.71065c0.31999,0.50265 0.71332,0.97731 1.20797,1.37197c0.47465,0.38932 1.16397,0.66132 1.74396,0.53732c-0.92398,-0.71732 -1.07997,-1.67196 -1.40663,-2.63593c-0.07333,-0.27333 -0.13866,-0.56132 -0.21066,-0.83731c-0.18533,-0.71198 -0.37199,-1.42263 -0.54399,-2.15328c-0.52132,-2.03462 -1.04931,-4.0559 -1.93062,-6.19851c-0.46266,1.09331 -0.57865,2.25061 -0.58799,3.37325c-0.01467,1.12931 0.13733,2.24661 0.39466,3.35192a12.55769,-12.55769 0 0 1 0.96798,2.47994m-88.0298,-270.34391c0.89064,-0.58799 1.78529,-1.17864 2.71727,-1.67862c0.92798,-0.46266 1.89729,-1.06797 2.96793,-0.77198c-0.40399,-0.41332 -1.06931,-0.49865 -1.63863,-0.48799c-0.59065,0.004 -1.15464,0.13066 -1.71329,0.25599c-1.10797,0.29866 -2.16528,0.71065 -3.17725,1.1973c-2.03328,0.96131 -3.9079,2.17995 -5.70119,3.49325c-1.76796,1.34263 -3.45858,2.78926 -4.99588,4.39722c-1.53196,1.60263 -2.96793,3.33192 -4.0359,5.3012c3.49191,-2.73993 6.86916,-5.3732 10.34107,-7.94513c1.71462,-1.30397 3.46658,-2.55194 5.23587,-3.76124m117.14374,310.42824c3.70791,3.76764 7.9038,7.01182 12.63968,9.50243c2.38261,1.19837 4.91321,2.20514 7.58514,2.68633c1.41063,0.26413 2.86393,0.36306 4.29323,0.27866c1.2613,-0.07293 2.5066,-0.28533 3.68391,-0.69998c-2.21194,-0.012 -4.31723,-0.35199 -6.35317,-0.90104c-2.84926,-0.76811 -5.56119,-1.95088 -8.21046,-3.31178c-4.56122,-2.31354 -8.90511,-5.17334 -13.63833,-7.55461m-140.29783,-291.45005c-0.71865,2.57727 -1.76796,4.98654 -3.04126,7.31582c-1.17864,2.35994 -2.46527,4.67722 -3.83457,6.94383c-2.7026,4.55055 -5.46386,9.07311 -8.33446,13.533c-2.8226,4.48522 -5.72919,8.92378 -8.62778,13.369c-1.44663,2.22394 -2.91726,4.43456 -4.43856,6.60783c-1.4853,2.19861 -2.94793,4.42256 -4.76388,6.36651c4.16923,-3.40525 7.29048,-7.8238 10.57974,-12.00503c3.24125,-4.24389 6.21451,-8.67712 9.09844,-13.16767c2.84393,-4.51589 5.57986,-9.10777 7.9598,-13.90365c2.31061,-4.78121 4.78655,-9.69976 5.40253,-15.05962m-31.63121,67.91964c-0.59465,1.4973 -0.89198,3.06259 -1.02664,4.63722c-0.13866,1.57996 -0.1,3.17592 0.156,4.77855c0.30799,1.58529 0.76798,3.21592 1.79596,4.62922c0.29733,0.33199 0.54799,0.68932 0.88264,0.97464c0.136,0.08933 0.26666,0.18133 0.39599,0.27333c0.23733,0.164 0.47332,0.32266 0.72665,0.44132c0.44132,0.11333 0.85065,0.27333 1.2693,0.29733c0.43199,-0.02533 0.84531,-0.08133 1.2253,-0.152c-1.44663,-0.39466 -2.30128,-1.28797 -2.85726,-2.37861l-0.184,-0.34132c-0.53465,-1.25997 -0.85465,-2.66793 -1.09597,-4.1079c-0.27466,-1.44263 -0.40399,-2.93593 -0.61198,-4.44122c-0.18666,-1.5093 -0.36932,-3.03459 -0.67598,-4.61055m2.63993,20.30883c-1.29597,2.46927 -1.80795,5.14254 -1.91329,7.86247c-0.00667,1.36263 0.07333,2.75326 0.48399,4.1279c0.108,0.37866 0.25733,0.75331 0.43732,1.11997c0.144,0.29866 0.30933,0.59199 0.51199,0.86798c0.44666,0.60132 1.23864,1.11464 1.95195,0.96398c-1.18397,-0.75598 -1.09197,-2.04662 -1.21864,-3.25059l0.00133,-0.23466c-0.02667,-1.16264 -0.02133,-2.34661 0.01867,-3.54658c0.028,-2.5706 0.13466,-5.1652 -0.27333,-7.91047m6.39717,28.73795c-0.12666,-0.024 -0.24399,-0.052 -0.36932,-0.07733c-1.2653,-0.25066 -2.39061,-0.57465 -3.13059,-1.22664c-0.48799,-0.42532 -0.83598,-0.97731 -1.10797,-1.60396c-0.17066,-0.40399 -0.31733,-0.83198 -0.42532,-1.29597c-0.30933,-1.17997 -0.42799,-2.47994 -0.60665,-3.80657c-0.16666,-1.32663 -0.31333,-2.7146 -0.74798,-4.0919c-0.89598,2.67593 -1.4133,5.4452 -0.76931,8.42112c0.33333,1.36397 1.12931,2.88926 2.54794,3.68524l0.19466,0.13466c1.33863,0.66798 2.7426,0.51599 3.91724,0.056c0.16666,-0.06667 0.34266,-0.11733 0.49732,-0.19466m0.33866,18.09821c0.37599,0.04133 0.74531,0.076 1.08931,0.048c0.34666,-0.07333 0.67865,-0.17333 0.98531,-0.27999c-1.3533,-0.33732 -2.17995,-1.02797 -2.52394,-1.96528c-0.37332,-0.93598 -0.53199,-2.08661 -0.64132,-3.27458c-0.144,-1.19064 -0.21999,-2.43594 -0.43999,-3.70124c-0.21066,-1.25197 -0.49999,-2.59194 -1.2413,-3.73191c-0.14933,1.32397 -0.35066,2.52794 -0.45866,3.79324c-0.12933,1.2613 -0.14933,2.5426 -0.036,3.87057c0.17066,1.29997 0.42532,2.7226 1.37463,3.9559c0.43466,0.63198 1.1773,1.07331 1.89195,1.2853m346.786,-163.62125c5.75586,5.42786 24.05273,20.64615 27.23932,26.99533c3.68124,7.33582 2.5226,13.83432 -0.59599,19.07419c-3.11992,5.23987 1.75462,-7.61714 -2.73726,-11.8917c-4.49322,-4.27723 -5.44653,-6.04252 -6.91716,-7.34648c-1.27463,-1.12664 -11.57171,-22.05278 -19.18085,-24.43539c-1.82662,1.46796 -3.95857,2.06795 -5.42253,0.35199c-2.72927,-3.20259 -4.54655,-11.30238 -6.40651,-14.89429c-1.11464,2.25328 -2.94526,3.05992 -4.97054,0.70265c-2.09595,-2.43727 -2.60527,-8.0558 -3.96923,-11.83837c-1.29997,1.95328 -3.52391,3.08926 -6.6905,1.57596c-4.63455,-2.21194 -7.38115,-9.56643 -9.93175,-13.33967c-2.24261,1.81329 -3.9719,0.15066 -6.20518,-2.5426c-3.10392,-3.74924 -3.11992,-15.17029 -10.62107,-11.40505l1.43996,-5.79319c-3.01326,3.55724 -1.43996,9.09044 1.3413,11.33705c3.43191,2.7666 -3.58391,2.61327 -11.42638,-4.87854c-7.22382,-6.90116 -52.74935,-10.14908 -61.68913,-14.82363c-0.89864,6.22918 -5.99718,17.14091 -12.72102,21.00881a57.57456,-57.57456 0 0 0 4.50255,4.75055c13.71032,16.19026 35.38712,54.61464 47.78947,94.51764c11.76371,-5.24254 29.67793,2.23728 32.55785,3.19192c1.02797,0.33999 1.92795,1.64663 2.50927,3.27592l0.05733,-0.07466c12.11703,-3.22392 34.73647,66.24635 44.53222,71.12756c9.79576,4.87854 11.76104,8.79311 7.84647,10.75573c-2.01195,1.00931 -4.57455,3.27325 -6.85183,5.77586c3.82524,5.13854 7.8518,7.55714 7.8558,10.8664c0,0.18666 -0.03067,0.35199 -0.052,0.52399c5.25054,4.72255 14.07165,12.76768 14.7583,14.13565c0.12666,0.25199 0.06933,0.55465 -0.12266,0.87998c5.10254,5.34787 13.08634,14.65563 8.95844,16.72758l-0.07733,0.04c3.41458,3.59858 7.8838,7.43448 5.39987,12.59702c-0.87998,1.82529 -1.81195,3.25059 -2.73593,4.31723c3.63591,11.08906 4.56255,27.00866 -3.8119,37.54173c-0.65465,0.82531 -1.26264,1.56129 -1.83195,2.22528c0.088,2.30394 0.04,4.68522 -1.98528,7.03982c-6.96516,8.08646 -21.53813,0.39866 -24.84471,-1.3093c-3.30525,-1.70929 -6.00785,-7.70114 0.36399,-2.93726c5.55986,4.15723 13.72366,4.20656 19.60751,-1.06131c0.088,-1.84529 0.57865,-4.34522 1.18264,-6.92383c1.32797,-5.68386 6.7185,-22.12478 8.70645,-32.45919c-1.70396,0.79598 -3.12526,0.28399 -3.75857,-1.25064c-0.91064,-2.21994 0.03067,-10.74506 -1.12531,-15.47295c-3.8399,1.63729 -6.82916,2.13995 -6.8345,-1.3493c-0.00533,-3.34925 0.16266,-10.22241 -1.68396,-14.81963c-2.48794,0.88531 -5.2292,1.04797 -6.17185,-0.83065c-1.71329,-3.41725 -1.94395,-11.30772 -5.88519,-14.55564c-2.38394,1.10397 -6.19718,0.23733 -6.8625,-1.08797c-0.54132,-1.07731 -0.20533,-6.29984 -0.92931,-10.62107c-1.32797,1.67329 -2.44927,3.32658 -3.07726,4.67188c-2.7826,5.94785 -5.87585,-10.76506 -6.7945,-15.57161c-4.36522,-22.86876 -26.26201,-60.05583 -34.44581,-71.13156c-0.25999,0.27599 -0.54932,0.52399 -0.90131,0.70132c-3.03192,1.5213 -18.99419,9.53043 -26.93399,11.23172c3.20392,16.87691 4.04923,33.20317 1.15197,47.35882c-10.67307,52.13603 -45.44953,47.30015 -45.44953,47.30015s-11.95303,26.20468 -59.94517,9.87975c-18.71153,-6.36517 -34.66713,-19.14486 -48.36013,-34.31114c-7.09316,5.19587 -20.1715,11.76237 -22.88743,13.12634c-0.35332,0.17466 -0.72265,0.25866 -1.09997,0.30266c3.98923,13.17967 20.72082,52.96001 36.44442,70.12491c3.30525,3.61058 14.85696,16.0796 8.42379,14.75296c-1.4533,-0.29733 -3.44791,-0.38799 -5.58253,-0.32133c3.03059,3.16259 7.41981,6.01318 7.9598,7.09049c0.66398,1.32663 -0.91864,4.90121 -3.22925,6.15451c0.24933,5.09987 6.43851,10.00108 8.15313,13.41566c0.94131,1.87862 -0.82531,3.97857 -3.02126,5.44653c2.58394,4.22656 8.19313,8.1998 10.87439,10.20508c2.79593,2.09061 0.60532,4.18523 -3.00259,6.28504c3.10126,3.75457 10.49707,8.093 11.73304,10.15175c0.85331,1.42396 0.41599,2.87179 -1.23997,3.75884c9.4731,4.58522 25.87669,10.08508 31.22589,12.41836c2.42794,1.05837 4.72522,2.15835 6.25718,3.18899c7.74114,-1.57076 12.58102,-8.14353 12.57035,-15.08602c-0.01067,-7.95447 3.17725,-2.20834 2.5706,1.46396c-0.60532,3.67177 -3.15059,19.95003 -13.79566,20.70055c-3.09859,0.21879 -5.03721,-1.16504 -6.8305,-2.6134c-0.87331,0.0604 -1.82662,0.10666 -2.88126,0.13906c-13.44766,0.41972 -25.65936,-9.83735 -32.37786,-19.38085c-1.4053,0.10373 -3.10659,0 -5.09454,-0.38532c-5.62519,-1.09331 -6.02918,-6.96809 -6.87449,-11.85864l-0.07733,0.04013c-4.1279,2.07075 -6.82116,-9.89309 -8.05847,-17.1809c-0.37332,-0.03867 -0.65198,-0.176 -0.77865,-0.42666c-0.68532,-1.36797 -1.86395,-13.25034 -2.5146,-20.28216c-0.14933,-0.08533 -0.30133,-0.156 -0.45199,-0.27199c-2.6506,-1.98128 -2.18261,-6.65317 -4.0159,-12.79168c-3.36658,0.33066 -6.7145,1.03331 -8.72645,2.04395c-3.91324,1.96395 -5.87719,-1.95062 -3.93457,-12.72235c1.94128,-10.7704 -40.24033,-70.42091 -30.41524,-78.21138l0.096,0c-0.95998,-1.43996 -1.4693,-2.94259 -1.12664,-3.97057c0.88931,-2.68793 5.05454,-19.27552 14.73963,-26.59934c-13.17967,-18.49954 -23.77007,-37.77906 -32.42852,-52.2107c-9.89709,-16.49692 -13.13034,-35.34312 -12.95301,-50.87206c-6.99449,3.66658 -19.49818,1.18397 -25.2487,-1.93595c-1.59329,9.95975 -26.19935,48.40146 -24.98204,58.31854c1.3213,10.7664 -2.74793,16.48225 -2.91859,12.07703c-0.13733,-3.57058 -3.63324,-8.14113 -8.28513,-7.84914l5.50386,2.30794c-7.49981,3.76391 1.64663,10.60107 2.79593,15.33028c0.82665,3.39992 1.12664,5.77986 -1.66663,6.49584c1.49863,4.29856 5.75452,10.89573 4.75988,15.9356c-0.67998,3.44258 -2.91993,4.54522 -5.26254,4.42122c2.21728,3.35592 6.41717,7.12116 7.11849,10.25841c0.67998,3.03059 -1.06131,4.01457 -3.53325,3.56391c1.76796,3.63858 7.17315,9.93442 8.1118,14.03698c0.53065,2.32528 -1.24264,3.67991 -3.53724,4.18923c-2.5746,7.56648 8.00113,28.23929 8.14513,29.92992c0.16533,1.95862 1.01197,3.77724 1.75462,9.93575c0.74531,6.15851 13.96498,9.93175 7.8998,9.30243c-6.06518,-0.62932 -11.96903,-3.58524 -15.65161,-10.92239c-3.19725,-6.37184 -4.46122,-30.30324 -5.37453,-38.06705c-2.21861,-0.21733 -4.22256,-1.11197 -4.63722,-2.62393c-0.97331,-3.54658 -1.18397,-12.23569 -1.2173,-17.76622c-0.72665,-0.49199 -1.4453,-1.05064 -2.11595,-1.68662c-2.93859,-2.77326 -2.22528,-7.98513 -1.36263,-11.73437c-0.55465,-0.38932 -1.03731,-0.82131 -1.3893,-1.27063c-1.57863,-2.02528 0.71332,-11.43171 2.12661,-17.39423c-0.22933,-0.02 -0.44132,-0.03733 -0.68398,-0.06667c-7.68247,-0.94798 -0.65865,-17.89955 -2.39461,-24.09006c-0.90131,0.136 -1.83729,0.43466 -2.8026,0.98264c-6.25318,3.54524 -7.9358,0.71732 -7.9358,0.71732c9.17844,-3.38258 35.46978,-52.0907 37.85505,-61.44913c1.79196,-7.02782 4.62655,-9.05977 7.17582,-7.49581c2.91593,-4.96788 17.44623,-14.91563 32.2192,-19.65551c0.91731,-2.11328 1.91329,-3.69057 2.92393,-4.61722c6.06918,-0.77598 12.56235,-2.98393 19.07686,-7.04382c4.64922,-1.07997 9.3291,-1.83995 14.05698,-2.10261c4.42122,-0.27333 8.86645,-0.29466 13.477,-0.50399c4.58522,-0.25199 9.4211,-1.02397 13.85565,-2.93059c4.45456,-1.92262 8.25446,-4.75188 11.80371,-7.68914c3.51191,-3.03592 6.7585,-6.35717 9.61576,-9.93442c2.91859,-3.52925 5.4732,-7.28115 8.18913,-10.81306c1.32663,-1.80262 2.7746,-3.46658 4.30389,-5.07721c0.31333,-0.30133 0.63465,-0.59332 0.95998,-0.88398c8.43312,-3.43858 15.04896,-5.61186 18.27688,-5.76252c0.36799,-0.01733 0.73731,-0.068 1.10664,-0.11866c2.98526,-0.17466 6.30384,-0.10933 9.83175,0.41732c12.58102,-8.84778 28.95128,-14.42364 34.61514,-13.79832c0.26933,-2.97726 3.59324,-4.03857 10.29841,-1.27463c8.93178,3.68257 63.69574,11.71037 71.89287,6.37184c0,0 1.26264,3.03992 -5.31853,5.93319c-1.01331,0.44666 -1.81329,1.02131 -2.46261,1.66129c3.92657,5.09187 21.71546,9.59043 17.88489,16.31693c-0.12133,0.21199 -0.23599,0.39199 -0.35466,0.58932c5.62386,2.42927 14.53697,6.21051 15.21429,8.68778c0.152,0.55199 0.20933,1.19597 0.19066,1.87462c3.52258,1.54663 8.12646,4.0919 8.59445,8.10513c0.12666,1.06931 0.13466,2.12795 0.06133,3.13592c4.43989,3.78791 11.35572,9.62643 13.54233,11.16105c1.38263,0.96931 0.80131,3.29192 -0.59599,5.3532m-110.08392,-189.00594c-1.44796,0.84531 -2.44661,2.26661 -3.36125,3.62924c-0.93464,1.37863 -1.73996,2.82926 -2.5306,4.28789c-1.51063,2.94926 -2.84526,5.97718 -4.13456,9.01711c-2.55994,6.09451 -4.70655,12.33703 -6.76916,18.59954c-2.00395,6.27984 -3.90524,12.58902 -5.57586,18.96353c-1.68662,6.36917 -3.28525,12.75968 -4.56922,19.23152l3.14925,-9.36643l3.02792,-9.39043l6.04918,-18.76486c2.00662,-6.25451 4.0879,-12.47835 6.25851,-18.6662c1.08931,-3.09059 2.23861,-6.16118 3.53458,-9.16377c0.63065,-1.5093 1.27997,-3.01326 2.05728,-4.44789c0.78265,-1.41863 1.56663,-2.89459 2.86393,-3.92924m-37.37907,75.70078c-1.42263,2.18128 -2.6506,4.40122 -4.06523,6.49317c-1.40396,2.09195 -2.81326,4.16123 -4.42656,6.05185c-1.57863,1.91595 -3.31458,3.68924 -5.2052,5.29453c-1.92129,1.56129 -3.9759,2.98259 -6.36651,3.9959c2.6186,-0.12133 5.1452,-1.21597 7.37315,-2.61593c2.23994,-1.42796 4.17723,-3.26925 5.88119,-5.27453c1.67596,-2.03595 3.07992,-4.26789 4.22256,-6.6105c1.17997,-2.32661 2.00395,-4.80921 2.5866,-7.33448m-21.31547,27.68864c-1.12664,-1.3013 -2.27061,-2.77593 -3.36258,-4.29189l-0.62532,-0.56132c-2.84926,-2.49327 -6.23318,-4.1039 -9.10111,-5.73852c-5.95052,-3.19859 -11.41838,-6.98516 -13.62233,-13.02101c-2.22128,-6.03185 -1.78662,-13.10367 -1.2933,-20.0035c-1.12931,3.29592 -2.08128,6.68517 -2.50127,10.21974c-0.40932,3.51325 -0.46666,7.20649 0.55465,10.83573c0.93731,3.65058 3.16125,6.98649 5.84785,9.56776c2.7186,2.58394 5.83452,4.47455 8.89044,6.22651c3.17325,1.70796 6.10785,3.08926 8.55979,5.08787l0.92798,0.72932l0.80798,0.80931c0.59199,0.51599 0.97198,1.13331 1.43596,1.71196c0.71332,1.21997 1.39863,2.49594 1.35463,3.83324c0.09066,2.67193 -1.92795,5.42786 -4.47055,7.48648c-2.5546,2.13728 -5.60786,3.76124 -8.68112,5.41986c3.40525,-0.75065 6.7705,-1.85062 9.91975,-3.66124c1.5333,-0.96398 3.05459,-2.05862 4.29056,-3.57324c1.33597,-1.40796 2.13728,-3.46391 2.35594,-5.55586c0.23866,-1.99595 -0.43999,-3.87324 -1.28797,-5.5212m-99.43752,59.99317c-3.57724,1.71062 -7.09316,3.40125 -10.7744,4.59189c-3.65724,1.20664 -7.41181,2.05995 -11.10906,2.27861c-0.92931,0.08533 -1.84129,0.04933 -2.7426,-0.01333c-0.91998,0.02 -1.76662,-0.19466 -2.64127,-0.30133c-1.65996,-0.38532 -3.24792,-1.00797 -4.20256,-1.97195c-0.92531,-0.94664 -1.21464,-2.08261 -0.88664,-3.52658c0.02133,-0.25999 0.14266,-0.87464 0.24933,-1.44263c0.08533,-0.55865 0.25066,-1.1413 0.25333,-1.67996c0.036,-1.08664 0.14933,-2.20261 0.028,-3.25059c-0.74665,-8.44379 -4.20389,-16.22759 -9.53443,-22.48344c-2.67193,-3.11059 -5.84919,-5.78919 -9.39977,-7.79047c-3.61858,-1.89062 -7.53848,-3.06392 -11.48505,-3.38125c3.76391,1.26797 7.25715,2.93459 10.33708,5.1852c3.05592,2.28528 5.64653,5.07454 7.8758,8.09446c2.20128,3.04792 4.01457,6.37984 5.3252,9.88909c1.33997,3.47858 2.31861,7.14382 2.51327,10.74106c0.12,0.90798 0.02667,1.76129 0.02667,2.63727c0.01067,0.44666 -0.12266,0.81865 -0.168,1.2333l-0.22799,1.46396c-0.064,0.63332 -0.23466,1.23064 -0.17466,1.89462c0.07733,0.66265 0.11733,1.33863 0.28666,1.98528c0.25066,0.63465 0.51065,1.28263 0.82665,1.87862c0.40266,0.53332 0.83731,1.04931 1.28263,1.53996c1.96928,1.74262 4.25723,2.36927 6.41317,2.76526c2.16928,0.27466 4.31589,0.27733 6.36517,-0.068c8.25979,-1.1893 15.49828,-5.2412 21.56346,-10.26908m-50.87206,3.21059c-2.24128,1.31197 -4.60788,2.10928 -7.00916,2.71727c-2.41594,0.55599 -4.87454,0.88931 -7.35582,1.00931c-2.48127,0.164 -4.97988,0.05733 -7.49715,-0.06667c-2.5226,-0.11733 -5.03587,-0.45732 -7.63448,-0.62132c2.37061,1.04131 4.85455,1.86529 7.42381,2.30794c2.56394,0.48399 5.19187,0.69465 7.82514,0.56532c2.6266,-0.16666 5.26254,-0.62132 7.74381,-1.56129c2.45594,-0.94931 4.84121,-2.32394 6.50384,-4.35056m-37.31773,10.23041c-5.95452,-2.84126 -12.03437,-5.37587 -18.15021,-7.82914c-6.10785,-2.4706 -12.30369,-4.71722 -18.53647,-6.86516c-6.25238,-2.08928 -12.54129,-4.0959 -18.95673,-5.68652c-3.20939,-0.78398 -6.43424,-1.52263 -9.70189,-2.07461c-1.64103,-0.23599 -3.28578,-0.45999 -4.94988,-0.53199c-1.63849,-0.08133 -3.37485,-0.132 -4.91854,0.52399c1.60303,-0.42132 3.25659,-0.16666 4.86175,0.05333c1.61409,0.23333 3.20939,0.61332 4.79575,1.00797c3.18219,0.75331 6.33064,1.66929 9.46016,2.6426c6.25824,1.95995 12.49249,4.00923 18.70633,6.13718l18.65953,6.36651l9.33843,3.18259l9.39177,3.07326l0,-0.00001zm248.56979,-279.59035c0.98131,9.35577 3.52125,22.94476 4.74655,30.34724c2.41594,2.95059 5.37853,15.37428 2.82126,23.34608c0.10533,0.30666 0.23466,0.60265 0.42532,0.87064c1.55996,2.19595 -1.18664,12.55835 -2.87059,17.98888c0.15466,0.11733 0.30533,0.23866 0.45066,0.36799c1.60529,1.42396 0.77731,10.5424 -1.83729,16.78491c3.71857,0.47065 8.0558,0.40799 12.70902,-1.21997c9.74509,-3.40525 -3.11592,3.71857 -0.98531,8.77445c2.12795,5.05454 11.75704,-6.83183 8.17846,-0.13733c-3.57858,6.6945 -19.47018,10.58774 -20.15816,17.05691c-0.69198,6.46917 7.78114,-1.04931 7.62381,2.70393c-0.15866,3.75324 -15.91694,9.2131 -18.79153,15.96093c-2.87459,6.74916 7.71181,-6.31851 10.00108,-3.38525c2.28661,2.93326 -19.95683,20.42482 -26.20335,43.76424c-3.74124,13.98098 -7.26915,13.53033 -9.49576,10.92506c0.22399,3.53191 -0.45199,6.85316 -1.98395,8.30513c-2.46927,2.34127 -8.22913,9.84775 -13.22234,14.49964c-1.27063,1.18397 -2.4826,2.16395 -3.58791,2.84393c0.97864,3.00926 0.62798,5.99185 0.124,8.02913c-1.93862,7.79981 -8.85578,14.88096 -14.81296,15.15829c-7.69314,0.35599 -28.89661,9.32643 -50.57207,20.20483c-16.55025,8.30646 -33.37917,17.72622 -44.65622,25.2687c-15.61028,10.44774 -31.10989,8.94911 -39.53101,2.8306c-1.45196,-1.05197 -2.6266,-2.21328 -3.57191,-3.43058c-0.08,0.70532 -0.25199,1.27863 -0.54265,1.66529c-0.46399,0.62398 -1.3533,1.13464 -2.4826,1.57329c-5.99452,2.32128 -19.67418,2.34794 -23.8554,3.07459c-2.07995,0.35999 -5.14787,-1.08397 -7.84247,-3.37325c0.75731,3.34258 -0.98931,6.43984 -14.43564,1.08397c-22.44611,-8.94111 -49.76409,-1.55863 -50.74847,-5.1452c-0.98331,-3.58791 15.81934,-4.26656 8.69192,-5.99318c-7.12956,-1.73062 -20.92601,7.64114 -24.02913,5.5252c-3.10299,-2.11461 7.98793,-4.41589 2.38901,-7.72914c-5.59826,-3.31325 -18.21514,7.09982 -25.72269,5.96918c-7.50661,-1.12931 7.77794,-1.74796 4.99828,-6.47584c-2.78113,-4.72788 -16.17986,1.3253 -7.62528,-4.45056c4.08736,-2.75993 6.72783,-6.19985 8.57365,-9.46243c-6.56797,-1.63596 -14.37404,-6.42117 -14.55537,-8.55712a7.30515,-7.30515 0 0 0 -0.02547,-0.58265c-5.36133,-1.89595 -15.31108,-5.88519 -16.13973,-8.45046c-0.10106,-0.31199 -0.26199,-0.59199 -0.44266,-0.85865c-7.9202,-2.7146 -16.11053,-12.51302 -17.03344,-16.21693c-5.20147,-5.40386 -14.58044,-15.56228 -21.49533,-21.94079c-8.73978,-8.06247 -12.41329,-9.2811 -9.31443,-10.01975c3.09899,-0.73998 3.34952,2.60393 3.99683,-0.98531c0.64745,-3.58924 0.56199,-15.18095 3.57644,-13.01967c0.94224,1.87329 -4.39776,10.16508 1.54996,18.86486c7.80514,11.41571 16.1268,19.05819 22.82143,22.05012c0.71812,-0.092 1.74316,0.23333 3.12019,1.07731c0.35306,0.084 0.70625,0.168 1.04677,0.21866l-0.12186,0.39066c0.16253,0.116 0.31773,0.21466 0.49012,0.34399c4.1723,3.09326 5.3832,11.65171 9.1435,15.95027c0.71038,-0.144 1.88795,-0.26799 3.78071,-0.39466c7.54514,-0.50665 11.58504,7.70914 15.27309,11.15439c0.55252,-1.77729 2.04422,-2.64927 4.66495,-0.03733c3.32338,3.31458 4.96388,7.71847 11.57264,7.16515c2.37647,-5.4212 2.99046,-9.09977 5.75919,-5.86119c7.86647,9.20244 73.3759,28.60729 86.03292,31.43921c-1.34263,-2.32928 -1.96395,-4.82921 -1.2013,-7.07049c2.32528,-6.8265 26.03402,-8.94911 32.26186,-13.98632l0.20133,-0.14266c0.75065,-0.64932 3.8079,5.98652 5.84519,12.64635c2.55594,-14.74896 -13.13967,-33.48183 -22.14345,-36.16976c-1.19197,-0.35599 -1.67862,-2.73193 -1.23597,-6.05052c1.00664,-7.57714 5.54119,-14.75563 7.14515,-14.8063l0.09733,0.076c7.42648,6.87316 31.39388,-8.22779 41.35363,-15.03962c9.62776,-6.58517 14.47297,-15.54228 17.69022,-21.77146c0.71198,-1.18264 1.38263,-2.36527 1.97062,-3.53458c0.94664,-1.88129 1.90129,-2.8346 3.11326,-3.18659c3.05459,1.96262 7.8358,3.17992 13.73966,3.62791c6.35984,1.71996 14.87696,2.5626 26.56067,-1.52663c0.46532,-0.26399 0.88531,-0.55999 1.3373,-0.83331c12.71968,-3.11592 19.16485,-13.55433 22.30878,-18.66753c0.41332,-0.67598 0.89998,-1.46663 1.24664,-1.96928c2.93193,0.81331 12.39436,6.83316 17.37423,12.40502c1.88395,2.10928 2.25061,3.26259 2.29461,3.36658c-1.94662,2.99726 -2.20528,9.45576 -0.64665,16.07427c0.66532,2.82793 1.94662,6.80783 4.32789,10.91306c1.15997,-0.25999 2.52927,-0.92131 4.01057,-1.79996c8.34112,-4.95054 20.81415,-17.67156 26.68867,-15.77161c2.25594,0.72532 3.88657,2.71993 4.95188,5.18654c5.2932,-11.84104 28.88595,-75.9621 26.21001,-87.76847c-0.94264,-4.1559 2.37194,-2.44927 8.14113,-1.11331c4.39056,-4.96921 1.84129,-8.91711 1.1693,-13.56099c-0.52799,-3.66391 1.06264,-4.33722 2.8186,-3.71724c-0.55999,-5.01721 -4.73055,-13.16767 0.18533,-18.91419c1.2333,-1.43996 2.03328,-2.31061 2.57594,-2.7946c-1.2013,-5.58386 -7.33848,-11.67038 -7.32648,-16.86358c0.00133,-0.21599 0.012,-0.39866 0.01867,-0.59865l-0.38666,-0.136c0.16133,-0.30266 0.30533,-0.63598 0.44932,-0.97064c0.14666,-1.60663 0.49732,-2.62393 0.99998,-3.14525c1.60129,-7.15582 0.44932,-18.39287 -4.03857,-31.47255c-3.42258,-9.96775 -13.25967,-10.64507 -14.20098,-12.51835c0.06933,-3.70924 9.3131,3.28658 12.57835,4.91321c3.26392,1.62529 0.73332,-0.57199 3.17725,-2.6146c2.44394,-2.04395 1.22664,1.62796 2.46794,13.45566m-370.12515,0.77598c8.45926,16.78625 17.15904,33.44983 26.07228,50.00275c4.42176,8.29579 9.00604,16.50359 13.67513,24.67272c2.36767,4.0719 4.69788,8.15046 7.27542,12.1357c1.24837,1.99862 2.677,4.01723 4.51709,5.72786c1.83849,1.60129 3.78057,3.01592 5.78052,4.31723c8.0826,5.05854 16.75945,8.91311 25.67123,12.0877c4.45522,1.59863 9.02844,2.87859 13.66966,3.88924c4.63722,0.97998 9.44643,1.62663 14.31698,0.90798c9.21177,-1.59863 18.57154,-2.93593 27.8433,-1.92662c4.58922,0.51332 9.23177,1.68662 13.03167,4.37322c3.8519,2.62927 6.22251,7.05049 6.94516,11.67971c-0.27999,-2.32928 -0.90531,-4.64122 -2.00528,-6.74916c-1.09464,-2.10795 -2.69327,-3.95457 -4.59589,-5.3972c-3.82524,-2.91059 -8.56645,-4.28123 -13.23967,-4.97054c-9.45176,-1.25064 -18.96486,-0.072 -28.24596,1.32797c-4.47189,0.55332 -9.14244,-0.124 -13.65966,-1.09997c-4.52522,-1.01731 -9.01577,-2.30528 -13.3942,-3.91324c-8.75445,-3.18125 -17.32917,-7.08116 -25.15404,-12.04503c-1.94675,-1.25064 -3.8119,-2.59327 -5.53106,-4.0679c-1.62023,-1.4853 -2.95046,-3.30525 -4.20309,-5.28387c-2.55407,-3.88657 -4.91654,-7.9558 -7.30128,-11.98903c-4.73948,-8.09846 -9.28057,-16.32359 -13.92939,-24.48472l-27.53891,-49.19477l-0.00001,-0.00003zm201.61603,98.62287c0.99331,2.06395 2.41194,3.88124 4.0359,5.45986l0.17866,0.18266l-0.17066,-0.19066c-3.17859,-3.32658 -5.23587,-7.78247 -5.04387,-12.35969c0.116,-4.65188 1.94928,-9.07444 4.27989,-13.05967c4.73188,-8.04113 11.39838,-14.7423 18.18355,-21.17414c3.49058,-3.47591 5.84652,-7.71847 7.8278,-12.02237c1.96528,-4.32389 3.67324,-8.75578 5.05321,-13.28233c2.7786,-9.04244 4.87588,-18.30488 5.65186,-27.80731c0.14933,-2.38261 0.176,-4.78521 -0.00933,-7.21715c-0.26933,-2.49594 -1.03597,-4.84788 -1.89195,-7.04249c-1.65596,-4.44789 -3.53325,-8.75311 -5.38253,-13.08501c-3.75991,-8.62645 -7.59981,-17.20757 -11.60904,-25.71136c-7.94513,-17.03824 -16.10626,-33.97248 -24.51005,-50.78806l22.98609,51.48271c3.76524,8.60512 7.64514,17.15957 11.30638,25.79936c1.80795,4.32389 3.65858,8.64778 5.2492,13.02101c0.83731,2.18661 1.49996,4.33989 1.72396,6.5265c0.15466,2.25728 0.11733,4.55855 -0.04533,6.86516c-0.69598,9.23977 -2.69327,18.44754 -5.3732,27.36598c-1.32797,4.47455 -2.97726,8.84111 -4.86655,13.08101c-1.91595,4.20389 -4.16523,8.35179 -7.28115,11.60638c-6.66917,6.60517 -13.29967,13.52766 -17.94755,21.85545c-2.23994,4.15723 -3.97323,8.77845 -3.92524,13.58499c0.01867,2.38661 0.54399,4.77188 1.57996,6.90916m15.9956,-4.62788c-3.25192,4.15323 -7.01182,7.90247 -10.92506,11.45038c-3.96257,3.49858 -8.06247,6.84783 -12.39969,9.85975c-4.29989,3.07592 -8.77311,5.81852 -13.461,8.24513c-4.64255,2.48794 -9.42643,4.62788 -14.40631,6.19318c-4.95854,1.63329 -10.12775,2.62793 -15.36495,3.45991c-10.50507,1.54529 -21.25814,2.32794 -31.9312,3.75857c10.76773,0.37599 21.5088,0.55199 32.34053,-0.37999c5.41453,-0.44666 10.84906,-1.39063 16.16493,-2.88526c5.31587,-1.51596 10.38507,-3.77191 15.23695,-6.27718c9.69842,-5.10921 18.51554,-11.75837 26.18068,-19.50485c3.8319,-3.8759 7.36648,-8.07313 10.32374,-12.68102c0.74931,-1.14264 1.4253,-2.33594 2.04795,-3.56258c0.68265,-1.17997 1.17064,-2.4826 1.69729,-3.73991c0.89731,-2.5826 1.57329,-5.3332 1.1773,-8.03313c-0.36399,5.43053 -3.48791,9.96508 -6.68117,14.09698m-90.28708,57.4359c-3.27592,-3.79324 -7.27315,-7.05582 -11.84637,-8.96511c3.55458,3.41725 6.5465,7.09049 9.13311,11.01706c2.53194,3.94923 4.70522,8.0998 6.25718,12.45169c1.61463,4.32256 2.61993,8.85045 2.78926,13.42233c0.13466,4.57189 -0.69598,9.20377 -2.93059,13.62366c3.72524,-3.30392 5.85985,-8.38646 6.34384,-13.47966c0.55199,-5.13587 -0.39066,-10.29974 -2.09461,-15.07296c-1.79196,-4.75321 -4.35189,-9.1931 -7.65181,-12.99701m-7.74647,7.15982c0.34532,-1.25464 0.70665,-2.47994 1.15864,-3.47591c0.24399,-0.43999 0.42799,-0.95198 0.82665,-1.21464c0.39199,-0.42266 1.07731,-0.47332 2.00928,-0.49599c-0.37466,-0.76531 -1.1653,-1.53863 -2.31194,-1.63329c-1.15597,-0.13333 -2.24528,0.38932 -3.05726,1.01331c-1.57729,1.3133 -2.39194,3.00392 -2.85593,4.68122c-0.45599,1.68796 -0.48265,3.43991 -0.14533,5.12654c0.37066,1.66663 1.09597,3.35458 2.51727,4.46656c0.30266,-1.74662 0.59732,-3.13326 0.91198,-4.51722c0.30933,-1.3653 0.59465,-2.6866 0.94664,-3.95057m119.94634,-52.96134l0.98264,1.42263c0.35999,0.44799 0.78531,0.85731 1.1933,1.26797c0.42399,0.39599 0.79865,0.84131 1.26264,1.18264l1.4213,0.98931c0.90264,0.73065 1.99062,1.10531 3.02259,1.54663c4.20656,1.62929 8.61978,1.59996 12.70368,0.79865c-4.0799,-1.00931 -7.98913,-1.98262 -11.22239,-3.87857c-3.24525,-1.87062 -5.5052,-4.67055 -6.93449,-8.04913c-1.4333,-3.38525 -2.13061,-7.26649 -2.63727,-11.23705c-0.51065,-3.9759 -0.82931,-8.0878 -1.63329,-12.20903c-1.00531,4.0679 -1.63996,8.15713 -1.76662,12.37169c-0.11333,4.18656 0.24133,8.58645 2.00528,12.77568c0.49865,1.02264 0.89864,2.08261 1.60263,3.01859m5.71719,-12.89701c0.04133,0.38399 0.06,0.73198 0.23466,1.11197c0.11733,0.35599 0.51865,0.74398 0.86131,0.70532c-0.04267,-0.38399 0.17733,-0.51332 0.35066,-0.67065c0.176,-0.13866 0.37066,-0.27599 0.56265,-0.38266c0.38132,-0.24666 0.76531,-0.43732 1.12664,-0.62532c0.71598,-0.37732 1.35597,-0.67198 1.96528,-0.96398c0.61198,-0.30533 1.22797,-0.55999 2.01195,-0.85998c0.79331,-0.35866 1.72529,-0.54799 3.03459,-1.03864c-0.61065,-1.1933 -1.65596,-2.03862 -2.92793,-2.39061c-1.2533,-0.36799 -2.72393,-0.28399 -3.95857,0.31733c-1.24264,0.57599 -2.25728,1.57329 -2.82126,2.79326c-0.29466,0.59999 -0.41999,1.31197 -0.43999,2.00395m-196.80535,3.78257c-14.04592,-10.09441 -42.32388,-76.69808 -50.71953,-94.55497c-6.05612,-12.87834 1.65103,-32.54052 4.18536,-38.83636c3.08952,-7.67314 6.53624,-1.44396 1.98382,9.00378c-4.55255,10.44907 -3.45418,31.32855 7.34088,28.76861c10.79613,-2.56127 7.40248,-13.513 12.43982,-10.32508c5.03894,3.18525 -11.09559,15.77294 -6.34304,30.12458c4.75401,14.34764 41.05991,72.05153 64.2208,67.77564c23.16075,-4.27589 6.48784,-25.29937 5.33453,-34.10715c-1.15464,-8.80778 10.29841,14.01565 17.65423,23.79274c7.23715,9.62109 7.9198,34.78846 46.21085,25.90869c-0.06533,-0.97998 0.02133,-1.96662 0.27199,-2.89859c0.48532,-1.89329 1.51863,-3.52525 2.7186,-4.91188c2.49594,-2.70793 5.55719,-4.64922 8.72245,-6.26251c-2.98126,1.92129 -5.80252,4.17856 -7.8678,6.94649c-1.48396,2.00528 -2.25461,4.42656 -1.97462,6.68917l0.02667,-0.00533c0.21999,0.99598 0.53999,1.88795 0.90264,2.73593c1.48663,2.73726 4.13056,4.83855 6.93583,6.44517c0.99064,0.55732 2.02262,1.03597 3.06792,1.47463c-3.10926,-4.56255 -0.82131,-11.67971 7.90914,-16.86625c9.83709,-5.84119 22.27544,-1.61196 21.60213,6.6865c-0.08266,1.02131 -0.36132,2.10528 -0.87064,3.23859c0.22933,-0.15066 0.45332,-0.29999 0.67865,-0.44799c0.64532,-1.23864 1.24664,-2.55594 1.73996,-3.92257c0.51065,-1.41063 0.90398,-2.87326 1.11731,-4.34656c0.012,-0.70132 -0.09733,-1.41063 -0.128,-2.12261c-0.14133,-0.76531 -0.25733,-1.54796 -0.44532,-2.30794c-0.77865,-3.03592 -2.34394,-5.89852 -4.78655,-7.8878c-2.41994,-1.98795 -5.65986,-3.11992 -8.99311,-3.15192l-1.25064,-0.09466l-1.25464,0.10133l-2.5266,0.20399c-1.66663,0.27866 -3.31992,0.69198 -4.99854,1.03464c1.62129,-0.51599 3.23725,-1.10797 4.89454,-1.57196l2.54527,-0.48265l1.28263,-0.24133l1.30797,-0.044c2.95326,-0.28266 6.06918,0.30266 8.84378,1.71329c30.38857,-25.5167 11.8277,-41.25764 8.42779,-52.84001c-3.44125,-11.74237 -14.89696,-34.56714 -8.52379,-28.37662c6.37184,6.19051 13.26367,32.12186 30.53257,16.10626c17.27157,-16.01427 -7.29715,-79.60734 -15.9636,-91.99504c-8.66378,-12.38769 -28.39796,-6.97316 -27.94064,-12.91701c0.45599,-5.94385 7.20649,3.32258 15.71161,-3.8039c8.50512,-7.12516 -7.57981,-20.48349 -18.6782,-23.07676c-11.09706,-2.59594 -14.03165,-9.08111 -6.03185,-6.97316c6.55984,1.73062 26.92999,7.30382 33.63916,19.8555c9.2971,17.40223 45.80019,79.878 45.5002,97.17224c-0.26666,15.34495 -15.62494,58.05455 -23.12076,69.81559c-0.95198,1.49463 -1.78529,2.51594 -2.43727,2.89059c0,0 -0.42132,0.86398 -1.07997,2.25994c0.34666,-0.38266 0.70265,-0.74531 1.08264,-1.07464c5.5012,-4.74121 13.95432,-3.75991 17.3289,-3.11459c4.36522,0.83598 7.30915,2.34927 7.8918,3.03992c-2.09861,7.33182 2.84126,11.72371 7.62114,15.97293c4.63588,4.11856 9.01177,8.01047 7.79981,14.56097c-1.27997,6.90649 -0.69598,11.67704 1.78129,14.58097c2.74393,3.21859 7.36382,3.48125 10.59707,3.39992c1.2413,-0.02933 1.89862,1.4013 2.23194,2.60527c2.46661,8.89711 -4.38389,31.98053 -26.09268,44.29756c-15.23562,5.31453 -24.53405,1.85462 -31.32322,-0.67332c-3.73057,-1.38797 -6.93316,-2.57994 -9.61709,-1.2333c-1.2973,0.65198 -2.47194,1.89462 -3.52791,3.99323c-5.90919,11.74104 -19.04086,24.98071 -32.55119,32.88185c-22.47011,9.38377 -42.53894,2.53994 -47.45615,-3.92657c-1.00397,-1.31997 -1.1853,-2.40661 -0.53865,-3.22792c1.99862,-2.5466 4.54789,-6.40517 3.60924,-10.53174c-0.84798,-3.72391 -4.32523,-7.03982 -10.62773,-10.14241c-5.97852,-2.94259 -6.48117,-8.77711 -7.01449,-14.95696c-0.55065,-6.36917 -1.11864,-12.95568 -8.24779,-15.65561c-0.21066,-0.87864 0.33599,-4.14123 2.27461,-8.14113c1.49863,-3.09192 5.74386,-10.45174 12.85701,-12.03437c3.28658,-0.72932 7.07716,-0.03867 11.46771,0.76131c4.89721,0.89198 10.57574,1.90929 17.49556,1.53463c-0.98131,-0.82665 -2.07728,-1.52796 -3.25725,-2.12928c-8.83311,-4.50389 -22.03145,-3.19859 -22.03145,-3.19859c-6.11051,2.64793 -59.52158,-12.86501 -73.5671,-22.95943m174.18991,180.2755c-2.47594,0.31599 -4.91988,0.79465 -7.33182,1.39997c6.42784,-4.05457 13.97432,-8.41179 21.92879,-12.72902l33.30983,-16.71692c3.86257,-1.77862 7.57581,-3.42658 11.04639,-4.89854c-1.13864,0.97731 -2.24528,1.98795 -3.28392,3.05059c-3.17859,3.29725 -6.07985,6.73583 -9.13311,9.96908c-3.07592,3.20792 -6.21451,6.29851 -9.67842,8.98244c-3.45325,2.70127 -7.00516,5.27987 -10.89439,6.8705c-7.69714,3.50391 -16.84091,2.70527 -25.96335,4.0719" fill="#100f0d" fill-rule="nonzero" id="svg_3"/>
 </g>

</svg>